<svg xmlns="http://www.w3.org/2000/svg" viewBox="0 0 125.38 190.5"><defs><style>.cls-1{fill:#4a68b1;}.cls-2{fill:#faa719;}.cls-3{fill:none;stroke:#000;stroke-miterlimit:10;stroke-width:0.75px;}</style></defs><title>math_quiz-icon</title><g id="Layer_1" data-name="Layer 1"><path class="cls-1" d="M64.42,240.5V50l62.7,4.55q29.06,0,44.68,10.66c10.41,7.11,17.35,21.87,17.35,34.79,0,9.37-2.56,22-10.27,30.5-6.36,7-13.42,16.27-26.06,18.83a131.1,131.1,0,0,0,12.68,5.84c4.38,1.5,10.94,6,14,10.33,5.95,8.48,11.42,14.48,10,24.5-2.26,15.9-2.67,22.83-12.67,34.83C167.41,236.14,152.7,240.5,133,240.5ZM103,83.38l-.13,48.8h17c8.07,0,18.92-2.56,22.9-8.18,3.51-5,6.75-10.26,6.75-17.12,0-15-11-24.55-31.83-23.5Zm0,74.29V208h13.31c7.67-.47,15.87-1.78,21.61-5.1,9.21-5.34,10.14-16.86,10.4-25.89.11-4-.52-9.2-4.52-12.66-4.86-4.19-11-5.66-20-5.66Z" transform="translate(-64.42 -50)"/><path class="cls-2" d="M146.27,192a21.66,21.66,0,0,0,1.46-7.4c0-13.62-9.35-23.37-24.6-23.37H103.54V240.5H64.42V50H127c42.14,0,62.6,20.3,62.6,51.78a49,49,0,0,1-2.78,16.77A46.69,46.69,0,0,1,179,132.42a49.71,49.71,0,0,1-12.29,10.65c-4.81,3-5.65,4.22-11.54,5.91,0,0,32.43,6.65,34.52,36a60.9,60.9,0,0,1-5.31,28.67ZM103.54,83.86v48.32h16.95q12.58,0,20.22-7.27a24.23,24.23,0,0,0,7.75-18.28q0-22.77-27.25-22.77Z" transform="translate(-64.42 -50)"/></g><g id="Layer_2" data-name="Layer 2"><path class="cls-3" d="M100,208" transform="translate(-64.42 -50)"/></g></svg>